<svg xmlns="http://www.w3.org/2000/svg">
    <svg id="home" viewBox="0 0 24 24" fill="none" xmlns="http://www.w3.org/2000/svg">
        <path d="M3 9L12 2L21 9V20C21 20.5304 20.7893 21.0391 20.4142 21.4142C20.0391 21.7893 19.5304 22 19 22H5C4.46957 22 3.96086 21.7893 3.58579 21.4142C3.21071 21.0391 3 20.5304 3 20V9Z" stroke="#E65912" stroke-width="2" stroke-linecap="round" stroke-linejoin="round"/>
        <path d="M9 22V12H15V22" stroke="#E65912" stroke-width="2" stroke-linecap="round" stroke-linejoin="round"/>
    </svg>
   <svg id="user" viewBox="0 0 24 24" fill="none" xmlns="http://www.w3.org/2000/svg">
        <path d="M20 21V19C20 17.9391 19.5786 16.9217 18.8284 16.1716C18.0783 15.4214 17.0609 15 16 15H8C6.93913 15 5.92172 15.4214 5.17157 16.1716C4.42143 16.9217 4 17.9391 4 19V21" stroke="#E65912" stroke-width="2" stroke-linecap="round" stroke-linejoin="round"/>
        <path d="M12 11C14.2091 11 16 9.20914 16 7C16 4.79086 14.2091 3 12 3C9.79086 3 8 4.79086 8 7C8 9.20914 9.79086 11 12 11Z" stroke="#E65912" stroke-width="2" stroke-linecap="round" stroke-linejoin="round"/>
    </svg>
    <svg id="file" viewBox="0 0 24 24" fill="none" xmlns="http://www.w3.org/2000/svg">
        <path d="M14.5 2H6C5.46957 2 4.96086 2.21071 4.58579 2.58579C4.21071 2.96086 4 3.46957 4 4V20C4 20.5304 4.21071 21.0391 4.58579 21.4142C4.96086 21.7893 5.46957 22 6 22H18C18.5304 22 19.0391 21.7893 19.4142 21.4142C19.7893 21.0391 20 20.5304 20 20V7.5L14.5 2Z" stroke="#E65912" stroke-width="2" stroke-linecap="round" stroke-linejoin="round"/>
        <path d="M14 2V8H20" stroke="#E65912" stroke-width="2" stroke-linecap="round" stroke-linejoin="round"/>
    </svg>
    <svg id="file-text" viewBox="0 0 24 24" fill="none" xmlns="http://www.w3.org/2000/svg">
        <path d="M14.5 2H6C5.46957 2 4.96086 2.21071 4.58579 2.58579C4.21071 2.96086 4 3.46957 4 4V20C4 20.5304 4.21071 21.0391 4.58579 21.4142C4.96086 21.7893 5.46957 22 6 22H18C18.5304 22 19.0391 21.7893 19.4142 21.4142C19.7893 21.0391 20 20.5304 20 20V7.5L14.5 2Z" stroke="#E65912" stroke-width="2" stroke-linecap="round" stroke-linejoin="round"/>
        <path d="M14 2V8H20" stroke="#E65912" stroke-width="2" stroke-linecap="round" stroke-linejoin="round"/>
        <path d="M16 13H8" stroke="#E65912" stroke-width="2" stroke-linecap="round" stroke-linejoin="round"/>
        <path d="M16 17H8" stroke="#E65912" stroke-width="2" stroke-linecap="round" stroke-linejoin="round"/>
        <path d="M10 9H8" stroke="#E65912" stroke-width="2" stroke-linecap="round" stroke-linejoin="round"/>
     </svg>
    <svg id="layers" viewBox="0 0 24 24" fill="none" xmlns="http://www.w3.org/2000/svg">
        <path d="M12 2L2 7L12 12L22 7L12 2Z" stroke="#E65912" stroke-width="2" stroke-linecap="round" stroke-linejoin="round"/>
        <path d="M2 17L12 22L22 17" stroke="#E65912" stroke-width="2" stroke-linecap="round" stroke-linejoin="round"/>
        <path d="M2 12L12 17L22 12" stroke="#E65912" stroke-width="2" stroke-linecap="round" stroke-linejoin="round"/>
    </svg>
    <svg id="calculator" viewBox="0 0 24 24" fill="none" xmlns="http://www.w3.org/2000/svg">
        <path d="M18 2H6C4.89543 2 4 2.89543 4 4V20C4 21.1046 4.89543 22 6 22H18C19.1046 22 20 21.1046 20 20V4C20 2.89543 19.1046 2 18 2Z" stroke="#E65912" stroke-width="2" stroke-linecap="round" stroke-linejoin="round"/>
        <path d="M8 6H16" stroke="#E65912" stroke-width="2" stroke-linecap="round" stroke-linejoin="round"/>
        <path d="M16 14V18" stroke="#E65912" stroke-width="2" stroke-linecap="round" stroke-linejoin="round"/>
        <path d="M16 10H16.01" stroke="#E65912" stroke-width="2" stroke-linecap="round" stroke-linejoin="round"/>
        <path d="M12 10H12.01" stroke="#E65912" stroke-width="2" stroke-linecap="round" stroke-linejoin="round"/>
        <path d="M8 10H8.01" stroke="#E65912" stroke-width="2" stroke-linecap="round" stroke-linejoin="round"/>
        <path d="M12 14H12.01" stroke="#E65912" stroke-width="2" stroke-linecap="round" stroke-linejoin="round"/>
        <path d="M8 14H8.01" stroke="#E65912" stroke-width="2" stroke-linecap="round" stroke-linejoin="round"/>
        <path d="M12 18H12.01" stroke="#E65912" stroke-width="2" stroke-linecap="round" stroke-linejoin="round"/>
        <path d="M8 18H8.01" stroke="#E65912" stroke-width="2" stroke-linecap="round" stroke-linejoin="round"/>
    </svg>
    <svg id="filter" viewBox="0 0 24 24" fill="none" xmlns="http://www.w3.org/2000/svg">
       <path d="M22 3H2L10 12.46V19L14 21V12.46L22 3Z" stroke="#E65912" stroke-width="2" stroke-linecap="round" stroke-linejoin="round"/>
    </svg>
    <svg id="calender" viewBox="0 0 24 24" fill="none" xmlns="http://www.w3.org/2000/svg">
        <path d="M19 4H5C3.89543 4 3 4.89543 3 6V20C3 21.1046 3.89543 22 5 22H19C20.1046 22 21 21.1046 21 20V6C21 4.89543 20.1046 4 19 4Z" stroke="#E65912" stroke-width="2" stroke-linecap="round" stroke-linejoin="round"/>
        <path d="M16 2V6" stroke="#E65912" stroke-width="2" stroke-linecap="round" stroke-linejoin="round"/>
        <path d="M8 2V6" stroke="#E65912" stroke-width="2" stroke-linecap="round" stroke-linejoin="round"/>
        <path d="M3 10H21" stroke="#E65912" stroke-width="2" stroke-linecap="round" stroke-linejoin="round"/>
    </svg>
    <svg id="dashboard" viewBox="0 0 24 24" fill="none" xmlns="http://www.w3.org/2000/svg">
        <path d="M10 3H3V12H10V3Z" stroke="#E65912" stroke-width="2" stroke-linecap="round" stroke-linejoin="round"/>
        <path d="M21 3H14V8H21V3Z" stroke="#E65912" stroke-width="2" stroke-linecap="round" stroke-linejoin="round"/>
        <path d="M21 12H14V21H21V12Z" stroke="#E65912" stroke-width="2" stroke-linecap="round" stroke-linejoin="round"/>
        <path d="M10 16H3V21H10V16Z" stroke="#E65912" stroke-width="2" stroke-linecap="round" stroke-linejoin="round"/>
        <path d="M3 10H21" stroke="#E65912" stroke-width="2" stroke-linecap="round" stroke-linejoin="round"/>
    </svg>
    <svg id="info" viewBox="0 0 24 24" fill="none" xmlns="http://www.w3.org/2000/svg">
        <path d="M12 22C17.5228 22 22 17.5228 22 12C22 6.47715 17.5228 2 12 2C6.47715 2 2 6.47715 2 12C2 17.5228 6.47715 22 12 22Z" stroke="#F9AC1E" stroke-width="2" stroke-linecap="round" stroke-linejoin="round"/>
        <path d="M12 16V12" stroke="#F9AC1E" stroke-width="2" stroke-linecap="round" stroke-linejoin="round"/>
        <path d="M12 8H12.01" stroke="#F9AC1E" stroke-width="2" stroke-linecap="round" stroke-linejoin="round"/>
    </svg>
</svg>