<svg width="19" height="15" viewBox="0 0 19 15" fill="none" xmlns="http://www.w3.org/2000/svg">
<path d="M17.1427 7.49037L15.3466 0.78705C15.2302 0.352706 14.7844 0.0953153 14.3508 0.211472L1.10062 3.76188C0.667024 3.87804 0.409634 4.32391 0.526025 4.75821L2.32218 11.4615C2.43857 11.8959 2.8844 12.1533 3.31799 12.0371L16.5682 8.48674C17.0017 8.37054 17.2591 7.92471 17.1427 7.49037Z" fill="#14A36D"/>
<path d="M17.1427 7.49037L15.3466 0.78705C15.2302 0.352706 14.7844 0.0953153 14.3508 0.211472L1.10062 3.76188C0.667024 3.87804 0.409634 4.32391 0.526025 4.75821L2.32218 11.4615C2.43857 11.8959 2.8844 12.1533 3.31799 12.0371L16.5682 8.48674C17.0017 8.37054 17.2591 7.92471 17.1427 7.49037ZM15.7481 5.4679C14.7391 6.04408 14.1123 7.12868 14.1185 8.29034L5.34117 10.6422C4.76573 9.63302 3.68062 9.00715 2.51873 9.01268L1.9207 6.78073C2.92968 6.20454 3.55598 5.12093 3.55026 3.95829L12.3284 1.60619C12.904 2.61611 13.9882 3.24143 15.1501 3.23594L15.7481 5.4679Z" fill="#15BE79"/>
<path d="M11.7138 5.35273C11.3431 3.96954 10.0573 3.07493 8.6814 3.14768C8.47604 3.15767 8.26913 3.18982 8.06241 3.24518C6.47251 3.67118 5.52868 5.30595 5.95468 6.89585C6.05195 7.25881 6.21231 7.58834 6.42057 7.87503C7.12459 8.84595 8.37859 9.33303 9.60554 9.00429C11.1962 8.5781 12.14 6.94334 11.7138 5.35273Z" fill="#15BE79"/>
<path d="M10.3155 7.32214C10.1736 7.56786 9.94594 7.76272 9.63272 7.90649L9.71274 8.20503C9.7651 8.39052 9.66943 8.55618 9.48263 8.60357C9.30249 8.65428 9.12985 8.55824 9.08414 8.37346L9.00835 8.09057C8.63977 8.15525 8.21977 8.13463 7.8796 8.00568C7.6673 7.95435 7.58804 7.69719 7.67138 7.51124C7.75936 7.32566 7.90022 7.33217 8.09935 7.37975C8.28516 7.43103 8.45649 7.45907 8.6131 7.4638C9.02733 7.4743 9.7426 7.30761 9.61257 6.78341C9.50443 6.45242 9.07365 6.53755 8.74379 6.5165C8.25268 6.50492 7.91794 6.55063 7.53507 6.29024C7.37626 6.17938 7.26451 6.00346 7.19996 5.76247C7.03402 5.1583 7.42491 4.60836 7.99055 4.35482L7.91054 4.05627C7.85771 3.87341 7.95919 3.70396 8.14055 3.65778C8.32604 3.60542 8.49169 3.701 8.53904 3.88789L8.61624 4.17599C8.94179 4.13366 9.26869 4.17336 9.59696 4.29496C9.72183 4.33757 9.78469 4.41252 9.81938 4.53852C9.86518 4.68692 9.79407 4.90077 9.64069 4.94005C9.53799 4.96522 9.49149 4.95308 9.372 4.92224C9.20447 4.86988 9.0579 4.83613 8.93227 4.82113C8.55104 4.77514 7.86521 5.00136 7.99777 5.49261C8.11416 5.85857 8.55446 5.77541 8.90771 5.78774C9.17949 5.7823 9.40524 5.79008 9.58496 5.81117C9.76463 5.83236 9.93183 5.89789 10.0868 6.00796C10.4534 6.26821 10.5692 6.93008 10.3155 7.32214Z" fill="#14A36D"/>
<path d="M18.6586 14.0655V7.12567C18.6586 6.67604 18.2946 6.31201 17.8457 6.31201H4.12809C3.67922 6.31201 3.31519 6.67604 3.31519 7.12567V14.0655C3.31519 14.5151 3.67922 14.8792 4.12809 14.8792H17.8457C18.2946 14.8791 18.6586 14.5151 18.6586 14.0655Z" fill="#15BE79"/>
<path d="M18.6586 14.0655V7.12567C18.6586 6.67604 18.2946 6.31201 17.8457 6.31201H4.12809C3.67922 6.31201 3.31519 6.67604 3.31519 7.12567V14.0655C3.31519 14.5151 3.67922 14.8792 4.12809 14.8792H17.8457C18.2946 14.8791 18.6586 14.5151 18.6586 14.0655ZM17.8349 11.7509C16.7112 12.0463 15.825 12.9317 15.5304 14.0554H6.44344C6.14883 12.9317 5.26265 12.0463 4.13892 11.7509V9.44021C5.26265 9.14481 6.14808 8.26018 6.44344 7.1357H15.5312C15.8258 8.26018 16.7112 9.14481 17.835 9.44021V11.7509H17.8349Z" fill="#33DB92"/>
<path d="M13.9678 10.5955C13.9678 9.1635 12.9572 7.96654 11.6094 7.68075C11.4085 7.63725 11.2003 7.61475 10.9863 7.61475C9.3403 7.61475 8.00549 8.94951 8.00549 10.5955C8.00549 10.9713 8.07515 11.3311 8.20209 11.6619C8.63081 12.7819 9.71605 13.577 10.9863 13.577C12.6329 13.577 13.9678 12.2422 13.9678 10.5955Z" fill="#33DB92"/>
<path d="M12.1072 12.1361C11.9066 12.3367 11.6363 12.466 11.2965 12.5238V12.8329C11.2991 13.0256 11.1638 13.1609 10.9711 13.1583C10.784 13.1606 10.6421 13.0232 10.6458 12.8329V12.5401C10.2731 12.5071 9.87271 12.3785 9.57749 12.1659C9.38567 12.0614 9.37569 11.7925 9.50431 11.6344C9.63735 11.4779 9.77174 11.5207 9.95174 11.6182C10.118 11.7159 10.2762 11.7872 10.4263 11.8324C10.8237 11.9498 11.5577 11.9739 11.5678 11.4339C11.549 11.0861 11.1108 11.0569 10.7977 10.9512C10.3263 10.8129 9.99116 10.7704 9.68872 10.4198C9.56403 10.2715 9.5016 10.0727 9.5016 9.82323C9.49771 9.1967 10.0176 8.76667 10.6296 8.66818V8.35909C10.6259 8.16877 10.7677 8.03138 10.955 8.03373C11.1477 8.03115 11.2829 8.16634 11.2803 8.35909V8.65731C11.6057 8.70067 11.9112 8.82362 12.1968 9.02607C12.3064 9.09957 12.3477 9.18821 12.3486 9.31895C12.3544 9.47415 12.2304 9.66231 12.0721 9.66057C11.9663 9.65827 11.9246 9.63455 11.8172 9.5738C11.6689 9.47987 11.5361 9.40932 11.4186 9.36231C11.0623 9.2192 10.3413 9.26026 10.3422 9.76904C10.3599 10.1526 10.8066 10.1863 11.1447 10.2896C11.4086 10.3547 11.6247 10.4207 11.7928 10.4875C11.9609 10.5545 12.1055 10.6611 12.2267 10.8075C12.5133 11.1538 12.4539 11.8231 12.1072 12.1361Z" fill="#15BE79"/>
</svg>
