<svg width="28" height="24" viewBox="0 0 28 24" fill="none" xmlns="http://www.w3.org/2000/svg">
<g opacity="0.4">
<path d="M22.8608 16.2C23.7247 15.6572 24.3762 14.8791 24.7214 13.9781C25.0666 13.0771 25.0875 12.0998 24.7811 11.1873C24.4747 10.2748 23.8569 9.47432 23.0169 8.90143C22.1769 8.32854 21.1581 8.01288 20.1076 8.00002H18.1253C17.7924 6.9803 17.208 6.04286 16.4165 5.25891C15.6249 4.47496 14.647 3.8651 13.5571 3.47565C12.4671 3.08621 11.2938 2.92741 10.1262 3.01132C8.95852 3.09524 7.8273 3.41966 6.81839 3.95994C5.80948 4.50023 4.94942 5.24217 4.30353 6.12943C3.65763 7.01669 3.24289 8.02593 3.09079 9.08051C2.93869 10.1351 3.05323 11.2073 3.42572 12.2156C3.79822 13.224 4.41886 14.142 5.24052 14.9" stroke="black" stroke-width="2" stroke-linecap="round" stroke-linejoin="round"/>
<path d="M14.0507 12V21" stroke="black" stroke-width="2" stroke-linecap="round" stroke-linejoin="round"/>
<path d="M18.4558 16L14.0507 12L9.64563 16" stroke="black" stroke-width="2" stroke-linecap="round" stroke-linejoin="round"/>
</g>
</svg>
